<svg xmlns="http://www.w3.org/2000/svg" viewBox="0 0 147.11 45.17"><defs><style>.cls-1{fill:#47e1b1;}</style></defs><g id="Calque_2" data-name="Calque 2"><g id="Calque_1-2" data-name="Calque 1"><path class="cls-1" d="M45.16,0c3.32,0,6.64,0,10,0,1.06,0,1.37.28,1.34,1.34-.07,3-.05,5.89,0,8.83,0,.91-.25,1.16-1.15,1.15q-10.16,0-20.3,0c-.9,0-1.17-.24-1.16-1.14.06-2.95.07-5.89,0-8.84C33.82.28,34.13,0,35.19,0,38.51.07,41.84,0,45.16,0Z"/><path class="cls-1" d="M11.12,22.58c-3.26,0-6.52,0-9.77,0C.28,22.63,0,22.33,0,21.27c.07-2.95.06-5.89,0-8.84,0-.9.25-1.15,1.15-1.14q10.15,0,20.3,0c.9,0,1.17.24,1.15,1.15-.05,2.94-.07,5.88,0,8.83,0,1.06-.29,1.36-1.35,1.34C17.89,22.54,14.5,22.58,11.12,22.58Z"/><path class="cls-1" d="M33.87,45.14c-3.32,0-6.64,0-10,0-1.08,0-1.37-.3-1.34-1.35.07-2.88,0-5.76,0-8.65,0-.82,0-1.35,1.15-1.34,6.77.07,13.53.05,20.3,0,.91,0,1.16.26,1.15,1.16q-.09,4.5,0,9c0,.91-.27,1.15-1.16,1.14C40.64,45.11,37.25,45.14,33.87,45.14Z"/><path class="cls-1" d="M141.57,33.86c1.38,0,2.76.06,4.13,0,1-.05,1.44.13,1.41,1.29q-.13,4.41,0,8.83c0,1.06-.37,1.21-1.29,1.2-2.94,0-5.89-.07-8.83,0-1.06,0-1.22-.38-1.2-1.29,0-2.94.07-5.89,0-8.83,0-1.06.37-1.24,1.29-1.2C138.56,33.91,140.06,33.86,141.57,33.86Z"/></g></g></svg>