<svg xmlns="http://www.w3.org/2000/svg" viewBox="0 0 23.1 25.58"><defs><style>.cls-1{fill:#fff;}</style></defs><g id="Calque_2" data-name="Calque 2"><g id="Calque_1-2" data-name="Calque 1"><path class="cls-1" d="M5.54,0a.82.82,0,0,1,1,.55L7,2.17a8.26,8.26,0,0,1,9,0L16.53.59a.83.83,0,0,1,1.59.47h0L17.44,3.3A8.27,8.27,0,0,1,19.8,9.08h.83a.82.82,0,0,0,.82-.82V7.43a.83.83,0,0,1,1.65,0v.83a2.48,2.48,0,0,1-2.47,2.47H19.8v1.65h2.48a.83.83,0,0,1,0,1.65H19.8v1.65h.83a2.48,2.48,0,0,1,2.47,2.48V19a.83.83,0,1,1-1.65,0v-.82a.83.83,0,0,0-.82-.83H19.8a8.25,8.25,0,0,1-16.5,0H2.48a.83.83,0,0,0-.83.83V19A.83.83,0,1,1,0,19v-.82a2.48,2.48,0,0,1,2.48-2.48H3.3V14H.83a.83.83,0,1,1,0-1.65H3.3V10.73H2.48A2.48,2.48,0,0,1,0,8.26V7.43a.83.83,0,0,1,1.65,0v.83a.83.83,0,0,0,.83.82H3.3A8.23,8.23,0,0,1,5.66,3.3L5,1.07A.81.81,0,0,1,5.54,0ZM5,10.73v6.6a6.59,6.59,0,0,0,5.78,6.55V10.73Zm7.43,0V23.88a6.59,6.59,0,0,0,5.77-6.55v-6.6Zm5.77-1.65A6.6,6.6,0,1,0,5,9.08Z"/></g></g></svg>