<svg xmlns="http://www.w3.org/2000/svg" viewBox="0 0 185.26 62.02"><defs><style>.cls-1{fill:#ffff1f;}.cls-2{fill:#47e1b1;}</style></defs><g id="Calque_2" data-name="Calque 2"><g id="Calque_1-2" data-name="Calque 1"><path class="cls-1" d="M94.34,62,72.23,39.9,94.34,17.79,116.46,39.9ZM76.13,39.9,94.34,58.12,112.56,39.9,94.34,21.69Z"/><path class="cls-1" d="M4.25,12.51H0V7.32H4.25Zm0,18.89H0V26.21H4.25Z"/><path class="cls-2" d="M16.34,31.4H13V.71h3.31v13l8.22-13h3.68L19.88,13.93,28.81,31.4H25.17L17.9,17.1l-1.56,2.5Z"/><path class="cls-2" d="M46,25.5V22.9h3.31v2.6a6.21,6.21,0,0,1-1.94,4.89c-1.29,1.15-3.22,1.72-5.81,1.72s-4.53-.57-5.85-1.72a6.14,6.14,0,0,1-2-4.89V6.61A6.21,6.21,0,0,1,35.7,1.72Q37.64,0,41.51,0t5.86,1.72a6.14,6.14,0,0,1,2,4.89V17H37.07v8.5q0,3.78,4.49,3.78T46,25.5Zm-9-18.89v7.56h9V6.61q0-3.78-4.48-3.78T37.07,6.61Z"/><path class="cls-2" d="M130,.71H140.4V3.54h-7.09V26.16a3.54,3.54,0,0,0,.69,2.22,2.54,2.54,0,0,0,3.85,0,3.64,3.64,0,0,0,.66-2.25V20.54h3.3V26a6.14,6.14,0,0,1-1.58,4.56A5.74,5.74,0,0,1,136,32.11a5.89,5.89,0,0,1-4.32-1.58A6,6,0,0,1,130,26Z"/><path class="cls-2" d="M160,25.5V22.9h3.3v2.6a6.18,6.18,0,0,1-1.94,4.89q-1.94,1.72-5.8,1.72t-5.86-1.72a6.14,6.14,0,0,1-2-4.89V6.61a6.21,6.21,0,0,1,1.93-4.89Q151.58,0,155.46,0c2.58,0,4.54.57,5.86,1.72a6.14,6.14,0,0,1,2,4.89V17H151v8.5q0,3.78,4.49,3.78T160,25.5ZM151,6.61v7.56h9V6.61q0-3.78-4.49-3.78T151,6.61Z"/><path class="cls-2" d="M175.34,31.4H172V.71h1.41l1.37,3.49Q176.34,0,179.64,0q5.63,0,5.62,6.14V9.21H182.1V6c0-2.08-.87-3.12-2.6-3.12a3.61,3.61,0,0,0-2.86,1.8,8.81,8.81,0,0,0-1.3,5.19Z"/><path class="cls-2" d="M61.39,7.41a4.27,4.27,0,0,1,1.68-3,5.35,5.35,0,0,1,3.66-1.54c2.26,0,3.4,1.26,3.4,3.78V31.4H72.9l.53-.52V7.56a4.49,4.49,0,0,1,1.68-3.12,5.22,5.22,0,0,1,3.66-1.61q3.41,0,3.4,3.78V22.14l3.31-3.31V6.61Q85.48,0,78.82,0a6.85,6.85,0,0,0-5.95,3.45C72,1.15,70,0,66.78,0a6.41,6.41,0,0,0-3.5,1,7.77,7.77,0,0,0-2.6,2.71L59.5.71H58.09V31.4h3.3Z"/><polygon class="cls-2" points="94.45 9.92 97.75 13.22 97.75 0.71 94.45 0.71 94.45 9.92 94.45 9.92"/><polygon class="cls-2" points="109.56 25.03 109.56 21.49 106.25 21.49 106.25 21.72 109.56 25.03"/><path class="cls-2" d="M108.8,13l8.32,8.12a6,6,0,0,1,1.44,2.05,8,8,0,0,1,.35,2.6,3.09,3.09,0,0,1-1.18,2.57,5.51,5.51,0,0,1-3.5,1c-.15,0-.29,0-.44,0l2.69,2.7q5.73-.86,5.74-6.45A10.34,10.34,0,0,0,121.7,22a9.41,9.41,0,0,0-1.89-2.9L111.35,11a5.27,5.27,0,0,1-1.46-2,8.11,8.11,0,0,1-.33-2.59,3.22,3.22,0,0,1,1.11-2.6,6.31,6.31,0,0,1,6.66,0,3.28,3.28,0,0,1,1.11,2.64v4.21h3.3v-4q0-6.61-7.6-6.61-4,0-5.93,1.72a6.19,6.19,0,0,0-2,4.89,9.6,9.6,0,0,0,.55,3.52A8.64,8.64,0,0,0,108.8,13Z"/><path class="cls-1" d="M92.22,46.75h4.25v5.19H92.22Zm0-18.89h4.25v5.2H92.22Z"/></g></g></svg>