<svg xmlns="http://www.w3.org/2000/svg" viewBox="0 0 28.8 19.8"><defs><style>.cls-1{fill:#fff;}</style></defs><g id="Calque_2" data-name="Calque 2"><g id="Calque_1-2" data-name="Calque 1"><path class="cls-1" d="M28.8,9.9S23.4,0,14.4,0,0,9.9,0,9.9s5.4,9.9,14.4,9.9S28.8,9.9,28.8,9.9ZM2.11,9.9a23.94,23.94,0,0,1,3-3.68C7.42,3.9,10.58,1.8,14.4,1.8s7,2.1,9.3,4.42a23.94,23.94,0,0,1,3,3.68c-.1.16-.22.33-.35.52a23.72,23.72,0,0,1-2.64,3.16C21.38,15.9,18.21,18,14.4,18s-7-2.1-9.3-4.42a23.94,23.94,0,0,1-3-3.68Z"/><path class="cls-1" d="M14.4,5.4a4.5,4.5,0,1,0,4.5,4.5A4.49,4.49,0,0,0,14.4,5.4ZM8.1,9.9a6.3,6.3,0,1,1,6.3,6.3A6.3,6.3,0,0,1,8.1,9.9Z"/></g></g></svg>